# xmcd CD database file
#
# Track frame offsets:
#	150
#	9395
#	23855
#	37960
#	49990
#	64100
#	75515
#	86990
#	102575
#	114315
#
# Disc length: 1662 seconds
#
# Revision: 0
# Processed by: cddbd v1.5.1PL0 Copyright (c) Steve Scherf et al.
# Submitted via: CDex 1.51
#
DISCID=78067c0a
DTITLE=Tito Puente and Buddy Morrow - Revolving Bandstand
DYEAR=1900
DGENRE=Jazz
TTITLE0=Baia (Mai Baixa Do Sapateiro)
TTITLE1=I Concentrate On You
TTITLE2=Autumn Leaves
TTITLE3=Harlem Nocturne
TTITLE4=Kiss Of Fire
TTITLE5=The Continental
TTITLE6=Blue Moon
TTITLE7=Temptation
TTITLE8=Son In Love
TTITLE9=Baby Won't You Please Come Home
EXTD=
EXTT0=
EXTT1=
EXTT2=
EXTT3=
EXTT4=
EXTT5=
EXTT6=
EXTT7=
EXTT8=
EXTT9=
PLAYORDER=
